<svg xmlns="http://www.w3.org/2000/svg" width="1122.492" height="801.919" viewBox="0 0 1122.492 801.919">
  <g id="Group_39" data-name="Group 39" transform="translate(-0.005)">
    <rect id="Rectangle_20" data-name="Rectangle 20" width="260.662" height="378.524" rx="13.435" transform="translate(84.216 59.434) rotate(-12.753)" fill="#3f3d56"/>
    <circle id="Ellipse_43" data-name="Ellipse 43" cx="7.52" cy="7.52" r="7.52" transform="translate(102.269 101.521)" fill="#fff"/>
    <circle id="Ellipse_44" data-name="Ellipse 44" cx="7.52" cy="7.52" r="7.52" transform="translate(109.789 129.095)" fill="#fff"/>
    <circle id="Ellipse_45" data-name="Ellipse 45" cx="7.52" cy="7.52" r="7.52" transform="translate(158.669 330.885)" fill="#fff"/>
    <circle id="Ellipse_46" data-name="Ellipse 46" cx="7.52" cy="7.52" r="7.52" transform="translate(166.189 358.458)" fill="#fff"/>
    <rect id="Rectangle_21" data-name="Rectangle 21" width="156.513" height="26.086" transform="translate(168.438 180.04) rotate(-12.753)" fill="#f5f5f5"/>
    <rect id="Rectangle_22" data-name="Rectangle 22" width="260.662" height="378.524" transform="translate(269.443 191.699) rotate(-12.753)" fill="#6c63ff"/>
    <rect id="Rectangle_23" data-name="Rectangle 23" width="260.662" height="378.524" transform="translate(537.543 131.023) rotate(-12.753)" fill="#3f3d56"/>
    <rect id="Rectangle_24" data-name="Rectangle 24" width="156.513" height="26.086" transform="translate(323.853 221.399) rotate(-12.753)" fill="#f5f5f5"/>
    <rect id="Rectangle_25" data-name="Rectangle 25" width="208.685" height="6.521" transform="translate(312.325 288.642) rotate(-12.753)" fill="#f5f5f5"/>
    <rect id="Rectangle_26" data-name="Rectangle 26" width="208.685" height="6.521" transform="translate(315.684 303.483) rotate(-12.753)" fill="#f5f5f5"/>
    <rect id="Rectangle_27" data-name="Rectangle 27" width="208.685" height="6.521" transform="translate(319.043 318.324) rotate(-12.753)" fill="#f5f5f5"/>
    <rect id="Rectangle_28" data-name="Rectangle 28" width="99.995" height="6.521" transform="translate(322.403 333.166) rotate(-12.753)" fill="#f5f5f5"/>
    <rect id="Rectangle_29" data-name="Rectangle 29" width="115.211" height="6.521" transform="translate(325.762 348.007) rotate(-12.753)" fill="#f5f5f5"/>
    <rect id="Rectangle_30" data-name="Rectangle 30" width="208.685" height="6.521" transform="translate(329.12 362.848) rotate(-12.753)" fill="#f5f5f5"/>
    <rect id="Rectangle_31" data-name="Rectangle 31" width="208.685" height="6.521" transform="translate(332.479 377.689) rotate(-12.753)" fill="#f5f5f5"/>
    <rect id="Rectangle_32" data-name="Rectangle 32" width="193.468" height="6.521" transform="translate(335.838 392.531) rotate(-12.753)" fill="#f5f5f5"/>
    <rect id="Rectangle_33" data-name="Rectangle 33" width="208.685" height="6.521" transform="translate(339.198 407.371) rotate(-12.753)" fill="#f5f5f5"/>
    <rect id="Rectangle_34" data-name="Rectangle 34" width="108.69" height="6.521" transform="translate(342.556 422.213) rotate(-12.753)" fill="#f5f5f5"/>
    <rect id="Rectangle_35" data-name="Rectangle 35" width="115.211" height="6.521" transform="translate(622.017 376.795) rotate(-12.753)" fill="#6c63ff" opacity="0.3"/>
    <rect id="Rectangle_36" data-name="Rectangle 36" width="208.685" height="6.521" transform="translate(625.375 391.636) rotate(-12.753)" fill="#6c63ff" opacity="0.3"/>
    <rect id="Rectangle_37" data-name="Rectangle 37" width="208.685" height="6.521" transform="translate(628.734 406.477) rotate(-12.753)" fill="#6c63ff" opacity="0.3"/>
    <rect id="Rectangle_38" data-name="Rectangle 38" width="193.468" height="6.521" transform="translate(632.094 421.319) rotate(-12.753)" fill="#6c63ff" opacity="0.3"/>
    <rect id="Rectangle_39" data-name="Rectangle 39" width="208.685" height="6.521" transform="translate(635.452 436.159) rotate(-12.753)" fill="#6c63ff" opacity="0.3"/>
    <rect id="Rectangle_40" data-name="Rectangle 40" width="126.081" height="86.952" transform="translate(424.64 430.38) rotate(-12.753)" fill="#f5f5f5"/>
    <rect id="Rectangle_41" data-name="Rectangle 41" width="126.081" height="86.952" transform="translate(570.194 147.816) rotate(-12.753)" fill="#6c63ff" opacity="0.3"/>
    <rect id="Rectangle_42" data-name="Rectangle 42" width="126.081" height="86.952" transform="translate(690.553 236.472) rotate(-12.753)" fill="#6c63ff" opacity="0.3"/>
    <g id="Group_36" data-name="Group 36" transform="translate(223.844 639.567)" opacity="0.5">
      <rect id="Rectangle_43" data-name="Rectangle 43" width="3.76" height="21.307" transform="translate(8.773)" fill="#47e6b1"/>
      <rect id="Rectangle_44" data-name="Rectangle 44" width="3.76" height="21.307" transform="translate(21.307 8.774) rotate(90)" fill="#47e6b1"/>
    </g>
    <g id="Group_37" data-name="Group 37" transform="translate(633.689)" opacity="0.5">
      <rect id="Rectangle_45" data-name="Rectangle 45" width="3.76" height="21.307" transform="translate(8.773)" fill="#47e6b1"/>
      <rect id="Rectangle_46" data-name="Rectangle 46" width="3.76" height="21.307" transform="translate(21.307 8.774) rotate(90)" fill="#47e6b1"/>
    </g>
    <g id="Group_38" data-name="Group 38" transform="translate(1101.189 156.669)" opacity="0.5">
      <rect id="Rectangle_47" data-name="Rectangle 47" width="3.76" height="21.307" transform="translate(8.773)" fill="#47e6b1"/>
      <rect id="Rectangle_48" data-name="Rectangle 48" width="3.76" height="21.307" transform="translate(21.307 8.775) rotate(90)" fill="#47e6b1"/>
    </g>
    <path id="Path_78" data-name="Path 78" d="M515.6,640.4a4.606,4.606,0,0,1-2.566-5.566,2.214,2.214,0,0,0,.1-.511h0a2.309,2.309,0,0,0-4.149-1.531h0a2.209,2.209,0,0,0-.256.453,4.606,4.606,0,0,1-5.566,2.566,2.218,2.218,0,0,0-.511-.1h0a2.309,2.309,0,0,0-1.531,4.149h0a2.213,2.213,0,0,0,.453.256,4.606,4.606,0,0,1,2.566,5.566,2.21,2.21,0,0,0-.1.511h0a2.309,2.309,0,0,0,4.149,1.531h0a2.214,2.214,0,0,0,.255-.453,4.606,4.606,0,0,1,5.566-2.566,2.213,2.213,0,0,0,.511.1h0a2.309,2.309,0,0,0,1.531-4.149h0A2.217,2.217,0,0,0,515.6,640.4Z" transform="translate(-64.035 -2.959)" fill="#4d8af0" opacity="0.5"/>
    <path id="Path_79" data-name="Path 79" d="M661.8,765.054a4.606,4.606,0,0,1-2.566-5.566,2.212,2.212,0,0,0,.1-.511h0a2.309,2.309,0,0,0-4.149-1.531h0a2.212,2.212,0,0,0-.256.454,4.606,4.606,0,0,1-5.566,2.566,2.222,2.222,0,0,0-.511-.1h0a2.309,2.309,0,0,0-1.531,4.149h0a2.206,2.206,0,0,0,.453.256,4.606,4.606,0,0,1,2.566,5.566,2.213,2.213,0,0,0-.1.511h0a2.309,2.309,0,0,0,4.149,1.531h0a2.218,2.218,0,0,0,.255-.454,4.606,4.606,0,0,1,5.566-2.566,2.219,2.219,0,0,0,.511.1h0a2.309,2.309,0,0,0,1.531-4.149h0A2.208,2.208,0,0,0,661.8,765.054Z" transform="translate(-26.996 28.621)" fill="#4d8af0" opacity="0.5"/>
    <path id="Path_80" data-name="Path 80" d="M167.6,343.117a4.606,4.606,0,0,1-2.566-5.566,2.213,2.213,0,0,0,.1-.511h0a2.309,2.309,0,0,0-4.149-1.531h0a2.213,2.213,0,0,0-.256.453,4.605,4.605,0,0,1-5.566,2.566,2.214,2.214,0,0,0-.511-.1h0a2.309,2.309,0,0,0-1.531,4.149h0a2.214,2.214,0,0,0,.453.256,4.605,4.605,0,0,1,2.566,5.566,2.213,2.213,0,0,0-.1.511h0a2.309,2.309,0,0,0,4.149,1.531h0a2.213,2.213,0,0,0,.256-.453,4.605,4.605,0,0,1,5.566-2.566,2.213,2.213,0,0,0,.511.1h0a2.309,2.309,0,0,0,1.531-4.149h0a2.215,2.215,0,0,0-.453-.256Z" transform="translate(-152.201 -78.277)" fill="#4d8af0" opacity="0.5"/>
    <path id="Path_81" data-name="Path 81" d="M1032.8,495.054a4.606,4.606,0,0,1-2.566-5.566,2.2,2.2,0,0,0,.1-.511h0a2.309,2.309,0,0,0-4.149-1.531h0a2.213,2.213,0,0,0-.255.453,4.605,4.605,0,0,1-5.566,2.566,2.211,2.211,0,0,0-.511-.1h0a2.309,2.309,0,0,0-1.531,4.149h0a2.207,2.207,0,0,0,.453.255,4.606,4.606,0,0,1,2.566,5.566,2.214,2.214,0,0,0-.1.511h0a2.309,2.309,0,0,0,4.149,1.531h0a2.213,2.213,0,0,0,.256-.453,4.606,4.606,0,0,1,5.566-2.566,2.213,2.213,0,0,0,.511.1h0a2.309,2.309,0,0,0,1.531-4.149h0a2.217,2.217,0,0,0-.454-.255Z" transform="translate(66.998 -39.784)" fill="#4d8af0" opacity="0.5"/>
    <circle id="Ellipse_47" data-name="Ellipse 47" cx="7.52" cy="7.52" r="7.52" transform="translate(127.336 563.113)" fill="#f55f44" opacity="0.5"/>
    <circle id="Ellipse_48" data-name="Ellipse 48" cx="7.52" cy="7.52" r="7.52" transform="translate(395.553)" fill="#4d8af0" opacity="0.5"/>
    <circle id="Ellipse_49" data-name="Ellipse 49" cx="7.52" cy="7.52" r="7.52" transform="translate(573.778 566.436)" fill="#47e6b1" opacity="0.5"/>
    <circle id="Ellipse_50" data-name="Ellipse 50" cx="7.52" cy="7.52" r="7.52" transform="translate(1007.437 754.438)" fill="#f55f44" opacity="0.5"/>
    <rect id="Rectangle_49" data-name="Rectangle 49" width="260.662" height="378.524" rx="13.435" transform="translate(633.182 218.607) rotate(-12.753)" fill="#6c63ff"/>
    <circle id="Ellipse_51" data-name="Ellipse 51" cx="7.52" cy="7.52" r="7.52" transform="translate(651.236 260.697)" fill="#fff"/>
    <circle id="Ellipse_52" data-name="Ellipse 52" cx="7.52" cy="7.52" r="7.52" transform="translate(658.756 288.271)" fill="#fff"/>
    <circle id="Ellipse_53" data-name="Ellipse 53" cx="7.52" cy="7.52" r="7.52" transform="translate(707.637 490.06)" fill="#fff"/>
    <circle id="Ellipse_54" data-name="Ellipse 54" cx="7.52" cy="7.52" r="7.52" transform="translate(715.157 517.634)" fill="#fff"/>
    <rect id="Rectangle_50" data-name="Rectangle 50" width="156.513" height="26.086" transform="translate(717.404 339.212) rotate(-12.753)" fill="#f5f5f5"/>
  </g>
</svg>
