<svg id="Group_7" data-name="Group 7" xmlns="http://www.w3.org/2000/svg" width="559.377" height="394.206" viewBox="0 0 559.377 394.206">
  <circle id="Ellipse_1" data-name="Ellipse 1" cx="30.463" cy="30.463" r="30.463" transform="translate(255.222 332.444)" fill="#005bff"/>
  <path id="Path_6" data-name="Path 6" d="M687.1,559.868c17.042-5.118,35.161-10.455,48.677-22.623,12.078-10.873,20.232-27.476,15.228-43.782-4.993-16.272-19.949-27.123-35.391-32.519-8.758-3.061-17.921-4.759-27.08-6.093-9.957-1.45-19.957-2.638-29.953-3.781q-60.712-6.944-121.881-8.484c-20.122-.507-40.24-.495-60.365-.2-17.973.261-36.9.254-53.574-7.384-12.966-5.94-24.733-16.747-28.346-30.949-4.17-16.394,3.522-33.088,14.556-44.961A117.853,117.853,0,0,1,428.6,342.72c7.607-5.254,15.48-10.136,23.523-14.694A327.573,327.573,0,0,1,501.634,305.2c8.441-3.069,17.007-5.717,25.647-8.16a219.455,219.455,0,0,0,21.666-6.939c13.631-5.433,26.6-14.635,30.062-29.722,3.285-14.3-2.254-29.821-11.963-40.443-11.233-12.289-28.171-17.676-44.41-18.548-18.23-.979-36.041,3.584-53.176,9.375-18.276,6.176-36.157,13.277-54.819,18.28a368.84,368.84,0,0,1-56.42,10.488c-9.326.993-18.934,2.114-28.315,1.354-7.862-.637-15.685-2.949-21.479-8.529-4.968-4.785-7.928-11.36-6.911-18.3.185-1.26,2.1-.725,1.916.528-1.239,8.447,4.5,16.231,11.579,20.218,8.177,4.608,18.128,4.614,27.232,4.087a356.174,356.174,0,0,0,58.618-8.474c18.935-4.325,37.194-10.507,55.432-17.112,17.321-6.272,35.03-12.394,53.535-13.753,16.057-1.179,32.948,1.16,46.936,9.552a51.923,51.923,0,0,1,24.214,33.786c2.815,13.791-1.084,27.672-11.523,37.3-10.809,9.964-25.629,14.224-39.441,18.148a361.337,361.337,0,0,0-51.252,18.346,321.739,321.739,0,0,0-48.211,27.1c-14.732,10.068-29.272,22.735-33.931,40.7a37.49,37.49,0,0,0,1.862,25.142,45.944,45.944,0,0,0,14.743,17.5c14.782,10.877,33.412,13.11,51.267,13.332,20.053.25,40.108-.427,60.168-.1q61.323,1.006,122.394,7.465,15.3,1.62,30.567,3.581a276.385,276.385,0,0,1,27.336,4.433c16,3.714,31.572,10.855,41.517,24.422a38.619,38.619,0,0,1,3.289,42.229c-7.637,15.026-21.942,24.584-37.134,30.863a263.468,263.468,0,0,1-25,8.441.994.994,0,0,1-.528-1.916Z" transform="translate(-219.428 -168.209)" fill="rgba(104,187,227,0.53)"/>
  <circle id="Ellipse_2" data-name="Ellipse 2" cx="15.894" cy="15.894" r="15.894" transform="translate(67.478 30.132)" fill="rgba(104,187,227,0.53)"/>
  <circle id="Ellipse_3" data-name="Ellipse 3" cx="15.894" cy="15.894" r="15.894" transform="translate(177.74 60.264)" fill="rgba(104,187,227,0.53)"/>
  <circle id="Ellipse_4" data-name="Ellipse 4" cx="15.894" cy="15.894" r="15.894" transform="translate(271.116)" fill="rgba(104,187,227,0.53)"/>
  <circle id="Ellipse_5" data-name="Ellipse 5" cx="15.894" cy="15.894" r="15.894" transform="translate(329.393 67.548)" fill="rgba(104,187,227,0.53)"/>
  <circle id="Ellipse_6" data-name="Ellipse 6" cx="15.894" cy="15.894" r="15.894" transform="translate(250.587 145.693)" fill="rgba(104,187,227,0.53)"/>
  <circle id="Ellipse_7" data-name="Ellipse 7" cx="15.894" cy="15.894" r="15.894" transform="translate(150.589 183.44)" fill="rgba(104,187,227,0.53)"/>
  <circle id="Ellipse_8" data-name="Ellipse 8" cx="15.894" cy="15.894" r="15.894" transform="translate(256.547 242.38)" fill="rgba(104,187,227,0.53)"/>
  <circle id="Ellipse_9" data-name="Ellipse 9" cx="15.894" cy="15.894" r="15.894" transform="translate(370.452 275.492)" fill="rgba(104,187,227,0.53)"/>
  <circle id="Ellipse_10" data-name="Ellipse 10" cx="15.894" cy="15.894" r="15.894" transform="translate(503.562 268.207)" fill="rgba(104,187,227,0.53)"/>
  <path id="Path_7" data-name="Path 7" d="M559.614,220.372A88.155,88.155,0,0,0,472.347,307c-.006.44-.009,3.53-.009,7.572a22.349,22.349,0,0,0,22.345,22.348h0a22.362,22.362,0,0,0,22.358-22.377c0-2.755,0-4.658,0-4.775a42.384,42.384,0,1,1,65.244,35.681l.008.009s-31.806,20.476-41.5,48.566l.008,0a62.256,62.256,0,0,0-2.565,17.727c0,2.467.145,24.053.426,41.574A23.037,23.037,0,0,0,561.7,475.994h0a23.043,23.043,0,0,0,23.042-23.185c-.1-16.045-.15-34.729-.15-36.085,0-17.248,16.639-34.433,30.306-45.64a91.921,91.921,0,0,0,31.613-50.33,57.455,57.455,0,0,0,1.655-12.472,87.912,87.912,0,0,0-88.548-87.91Z" transform="translate(-277.192 -175.337)" fill="#005bff"/>
  <path id="Path_8" data-name="Path 8" d="M736.253,746.827h-557.8a.789.789,0,0,1,0-1.577h557.8a.789.789,0,0,1,0,1.577Z" transform="translate(-177.662 -352.621)" fill="#3f3d56"/>
  <circle id="Ellipse_11" data-name="Ellipse 11" cx="19.867" cy="19.867" r="19.867" transform="translate(396.316 141.054)" fill="#1d1e20"/>
  <path id="Path_9" data-name="Path 9" d="M566.9,566.157h-8.119l-3.863-31.316H566.9Z" transform="translate(-187.43 -180.648)" fill="#a0616a"/>
  <path id="Path_10" data-name="Path 10" d="M546.968,578.626h15.658v9.859H537.109a9.859,9.859,0,0,1,9.859-9.859Z" transform="translate(-181.414 -195.437)" fill="#1d1e20"/>
  <path id="Path_11" data-name="Path 11" d="M661.9,566.157h-8.118l-3.863-31.316H661.9Z" transform="translate(-219.517 -180.648)" fill="#a0616a"/>
  <path id="Path_12" data-name="Path 12" d="M641.968,578.626h15.658v9.859H632.109A9.859,9.859,0,0,1,641.968,578.626Z" transform="translate(-213.502 -195.437)" fill="#1d1e20"/>
  <circle id="Ellipse_12" data-name="Ellipse 12" cx="16.265" cy="16.265" r="16.265" transform="translate(396.899 148.374)" fill="#a0616a"/>
  <path id="Path_13" data-name="Path 13" d="M786.53,481.1l7.278-16.722a20.783,20.783,0,0,0-4.6-23.576,21.12,21.12,0,0,0-2.033-1.768,20.487,20.487,0,0,0-12.576-4.351,21.311,21.311,0,0,0-8.874,1.973c-.239.106-.47.219-.709.331-.457.219-.907.457-1.344.7a20.979,20.979,0,0,0-10.4,15.814l-3.212,26.913c-.808,2.113-29.628,78.4-19.549,136.646a2.958,2.958,0,0,0,2.53,2.43l10.218,1.391a2.978,2.978,0,0,0,3.318-2.338l17.145-81.727a2.32,2.32,0,0,1,4.5-.152l24.225,85.945a2.961,2.961,0,0,0,2.854,2.172,3.39,3.39,0,0,0,.576-.053l12.483-2.4a2.961,2.961,0,0,0,2.4-3.185C808.934,598.688,799.186,496.22,786.53,481.1Z" transform="translate(-363.672 -247.724)" fill="#1d1e20"/>
  <path id="Path_14" data-name="Path 14" d="M706.079,418.378a6.659,6.659,0,0,0,7.016,7.419l9.092,21.849,6.877-10.195-9.688-19.185a6.7,6.7,0,0,0-13.3.112Z" transform="translate(-356.126 -240.203)" fill="#a0616a"/>
  <path id="Path_15" data-name="Path 15" d="M796.347,524.329a6.659,6.659,0,0,0,5.58-8.552l19.129-13.932-11.517-4.313-16.4,13.892a6.7,6.7,0,0,0,3.207,12.905Z" transform="translate(-384.085 -268.952)" fill="#a0616a"/>
  <path id="Path_16" data-name="Path 16" d="M741.111,470.985a11.3,11.3,0,0,1-2.184-.215,10.8,10.8,0,0,1-7.912-6.368L718.277,448.87a2.981,2.981,0,0,1,.736-4.424l9.062-5.61a2.98,2.98,0,0,1,4.116.987l8.977,14.79,17.193-12.706a6.438,6.438,0,0,1,7.49,10.306l-17.16,15.653a10.763,10.763,0,0,1-7.58,3.119Z" transform="translate(-360.033 -248.976)" fill="#1d1e20"/>
  <path id="Path_17" data-name="Path 17" d="M817.623,496.822h-.07a2.985,2.985,0,0,1-2.193-1.04l-8.057-9.4a2.98,2.98,0,0,1,.61-4.419L823,471.9l-13.668-16.432a6.438,6.438,0,0,1,9.859-8.068L835.8,463.639a10.943,10.943,0,0,1-2.434,17.841l-13.577,14.406a2.985,2.985,0,0,1-2.169.936Z" transform="translate(-390.088 -251.453)" fill="#1d1e20"/>
  <path id="Path_18" data-name="Path 18" d="M790.718,457.615a3.067,3.067,0,0,1-.386-.024,2.954,2.954,0,0,1-2.458-2.032L781.82,437a2.041,2.041,0,0,1,1.056-2.467l.2-.093c.178-.085.355-.169.535-.249a21.571,21.571,0,0,1,9.008-2A20.746,20.746,0,0,1,803.98,435.6a2.073,2.073,0,0,1,.6,2.844l-11.357,17.793A2.951,2.951,0,0,1,790.718,457.615Z" transform="translate(-381.689 -246.88)" fill="#efd4d4"/>
  <circle id="Ellipse_13" data-name="Ellipse 13" cx="6.501" cy="6.501" r="6.501" transform="translate(425.346 139.05)" fill="#1d1e20"/>
  <path id="Path_19" data-name="Path 19" d="M787.329,361.365h0a17.218,17.218,0,0,0-17.218,17.218v7.285h8.96l4.285-7.285,1.286,7.285h27.191l-7.285-7.285A17.218,17.218,0,0,0,787.329,361.365Z" transform="translate(-377.768 -222.96)" fill="#1d1e20"/>
  <path id="Path_20" data-name="Path 20" d="M834.809,361.872a10.033,10.033,0,0,1,10.914-6.884c4.143.693,7.419,4.023,9.37,7.742s2.853,7.882,4.165,11.873,3.173,8,6.485,10.585,8.4,3.284,11.649.627a13.323,13.323,0,0,1-24.819,4.756c-1.716-3.054-2.16-6.634-2.669-10.1s-1.17-7.053-3.22-9.894-5.886-4.7-9.141-3.4Z" transform="translate(-399.621 -220.774)" fill="#1d1e20"/>
  <path id="Path_21" data-name="Path 21" d="M500.834,344.913h0a22.349,22.349,0,0,1-22.347-22.345c0-4.045,0-7.135.009-7.575a87.089,87.089,0,0,1,10.171-39.674,87.285,87.285,0,0,0-16.794,50.27c-.006.44-.009,3.53-.009,7.572a22.349,22.349,0,0,0,22.345,22.348h0a22.366,22.366,0,0,0,21.515-16.285A22.266,22.266,0,0,1,500.834,344.913Z" transform="translate(-277.032 -193.897)" fill="#3f3d56"/>
  <path id="Path_22" data-name="Path 22" d="M588.93,286.049a42.386,42.386,0,0,1,36.86,59.213,42.381,42.381,0,1,0-71.142-44.36A42.3,42.3,0,0,1,588.93,286.049Z" transform="translate(-304.993 -193.926)" fill="#3f3d56"/>
  <path id="Path_23" data-name="Path 23" d="M601.452,544.313h0a23.038,23.038,0,0,1-23.039-22.669c-.28-17.515-.426-39.1-.426-41.569a62.252,62.252,0,0,1,2.565-17.727l-.008,0a62.953,62.953,0,0,1,3.638-8.411,72.882,72.882,0,0,0-10.261,19.007l.008,0a62.254,62.254,0,0,0-2.565,17.727c0,2.467.145,24.053.426,41.574a23.037,23.037,0,0,0,23.039,22.663h0a23.047,23.047,0,0,0,22.119-16.584A22.953,22.953,0,0,1,601.452,544.313Z" transform="translate(-310.639 -254.227)" fill="#3f3d56"/>
  <path id="Path_24" data-name="Path 24" d="M126.54,566.613h8.118l3.863-31.316H126.538Z" transform="translate(-42.74 -180.802)" fill="#ffb8b8"/>
  <path id="Path_25" data-name="Path 25" d="M0,0H25.517V9.859H9.859A9.859,9.859,0,0,1,0,0Z" transform="translate(107.575 393.349) rotate(179.997)" fill="#1d1e20"/>
  <path id="Path_26" data-name="Path 26" d="M82.54,566.613h8.118L94.521,535.3H82.538Z" transform="translate(-27.878 -180.802)" fill="#ffb8b8"/>
  <path id="Path_27" data-name="Path 27" d="M0,0H25.517V9.859H9.859A9.859,9.859,0,0,1,0,0Z" transform="translate(78.437 393.349) rotate(179.997)" fill="#1d1e20"/>
  <path id="Path_28" data-name="Path 28" d="M265.377,665l-7.93-.417a3.1,3.1,0,0,1-2.926-3.289L264,556.348l43.649,11.778,4.205-1.147-13.151,92.9a3.11,3.11,0,0,1-2.886,2.612l-8.549.4A3.1,3.1,0,0,1,284,659.716l1.549-55.758a1.032,1.032,0,0,0-2.042-.238L268.57,662.534A3.077,3.077,0,0,1,265.544,665C265.489,665,265.433,665,265.377,665Z" transform="translate(-203.62 -288.817)" fill="#1d1e20"/>
  <circle id="Ellipse_14" data-name="Ellipse 14" cx="16.265" cy="16.265" r="16.265" transform="translate(68.993 149.135)" fill="#ffb8b8"/>
  <path id="Path_29" data-name="Path 29" d="M265.5,461.144l1.788,38.587.647,14.038a3.074,3.074,0,0,0,2.036,2.765l41.944,15.194a2.963,2.963,0,0,0,1.059.186,3.075,3.075,0,0,0,3.088-3.171l-1.719-69.381a24.457,24.457,0,0,0-20.36-23.627c-.406-.062-.818-.124-1.231-.179a24.006,24.006,0,0,0-19.314,6.252,24.659,24.659,0,0,0-7.938,19.335Z" transform="translate(-207.32 -247.957)" fill="#bfbfbf"/>
  <path id="Path_30" data-name="Path 30" d="M356.787,554.068a6.664,6.664,0,0,1-3.555-10.084l-14.224-18.914,12.274-.76,11.625,18.077a6.7,6.7,0,0,1-6.12,11.68Z" transform="translate(-232.159 -277.997)" fill="#ffb8b8"/>
  <path id="Path_31" data-name="Path 31" d="M338.636,516.12a3.075,3.075,0,0,1-1.683-1.668L315.525,463.4a8.254,8.254,0,0,1,15.221-6.389l21.429,51.056a3.1,3.1,0,0,1-1.656,4.052l-9.513,3.993a3.074,3.074,0,0,1-2.369.011Z" transform="translate(-224.009 -253.555)" fill="#bfbfbf"/>
  <path id="Path_32" data-name="Path 32" d="M298.321,525.148,318.9,485.738a3.231,3.231,0,0,1,4.354-1.367l29.875,15.6a3.231,3.231,0,0,1,1.367,4.354l-20.582,39.409a3.231,3.231,0,0,1-4.354,1.367l-29.875-15.6a3.231,3.231,0,0,1-1.366-4.354Z" transform="translate(-218.293 -264.383)" fill="#3f3d56"/>
  <path id="Path_33" data-name="Path 33" d="M304.035,510.764a6.665,6.665,0,0,0-10.276-2.954l-19.72-13.082-.034,12.3,18.732,10.537a6.7,6.7,0,0,0,11.3-6.8Z" transform="translate(-210.203 -268.005)" fill="#ffb8b8"/>
  <path id="Path_34" data-name="Path 34" d="M269.529,496.41l-16.117-12.767a11.366,11.366,0,0,1-5.181-17.97L262.865,446.5a6.686,6.686,0,0,1,11.344,6.811l-11.578,18.94,17.016,8.071a3.1,3.1,0,0,1,1.29,4.45l-6.869,10.87a3.1,3.1,0,0,1-2.1,1.4l-.051.008A3.109,3.109,0,0,1,269.529,496.41Z" transform="translate(-200.631 -250.885)" fill="#bfbfbf"/>
  <path id="Path_35" data-name="Path 35" d="M283.766,401.334A1.414,1.414,0,0,1,285,399.467a3.265,3.265,0,0,1,2.3,1.136,9.162,9.162,0,0,0,2.034,1.746,1.75,1.75,0,0,0,2.3-.416,3.2,3.2,0,0,0-.122-2.486,24.44,24.44,0,0,1-1.079-6.47,11.393,11.393,0,0,1,1.629-6.919c1.751-2.467,4.882-3.4,7.845-3.335s5.878.982,8.812,1.561c1.013.2,2.2.3,2.882-.484.721-.835.456-2.186.149-3.314-.8-2.925-1.639-5.95-3.487-8.313a12.515,12.515,0,0,0-7.987-4.5,19.164,19.164,0,0,0-8.915,1.012,23.9,23.9,0,0,0-11.71,8.158,19.361,19.361,0,0,0-3.694,14.3,17.66,17.66,0,0,0,6.547,11.162Z" transform="translate(-210.799 -225.043)" fill="#1d1e20"/>
  <path id="Path_36" data-name="Path 36" d="M586.779,711a30.459,30.459,0,0,1-11.3-47.343,30.461,30.461,0,1,0,41.436,44.015A30.442,30.442,0,0,1,586.779,711Z" transform="translate(-307.805 -325.063)" fill="#3f3d56"/>
</svg>
